<mxfile host="65bd71144e" modified="2020-12-09T09:38:04.025Z" agent="5.0 (Windows NT 10.0; Win64; x64) AppleWebKit/537.36 (KHTML, like Gecko) Code/1.51.1 Chrome/83.0.4103.122 Electron/9.3.3 Safari/537.36" version="13.10.0" etag="LPRCoo8DGhkbWRBtidli" type="embed">
    <diagram id="dU7eJEjjrThuYY2mfdK8" name="Page-1">
        <mxGraphModel dx="545" dy="575" grid="1" gridSize="10" guides="1" tooltips="1" connect="1" arrows="1" fold="1" page="1" pageScale="1" pageWidth="827" pageHeight="1169" math="0" shadow="0">
            <root>
                <mxCell id="0"/>
                <mxCell id="1" parent="0"/>
                <mxCell id="2" value="" style="ellipse;html=1;shape=startState;fillColor=#000000;strokeColor=#ff0000;" vertex="1" parent="1">
                    <mxGeometry x="280" width="30" height="30" as="geometry"/>
                </mxCell>
                <mxCell id="3" value="" style="edgeStyle=orthogonalEdgeStyle;html=1;verticalAlign=bottom;endArrow=open;endSize=8;strokeColor=#ff0000;entryX=0.5;entryY=0;entryDx=0;entryDy=0;" edge="1" source="2" parent="1" target="4">
                    <mxGeometry relative="1" as="geometry">
                        <mxPoint x="295" y="90" as="targetPoint"/>
                    </mxGeometry>
                </mxCell>
                <mxCell id="7" value="" style="edgeStyle=orthogonalEdgeStyle;rounded=0;orthogonalLoop=1;jettySize=auto;html=1;entryX=0.456;entryY=0.487;entryDx=0;entryDy=0;entryPerimeter=0;" edge="1" parent="1" source="4" target="5">
                    <mxGeometry relative="1" as="geometry">
                        <mxPoint x="295" y="260" as="targetPoint"/>
                        <Array as="points"/>
                    </mxGeometry>
                </mxCell>
                <mxCell id="4" value="Set iterator of radius to 1,&lt;br&gt;Set Field Factory to build common field (not home for any color)" style="shape=rect;html=1;rounded=1;whiteSpace=wrap;align=center;" vertex="1" parent="1">
                    <mxGeometry x="215" y="100" width="160" height="80" as="geometry"/>
                </mxCell>
                <mxCell id="5" value="" style="shape=line;html=1;strokeWidth=6;strokeColor=#ff0000;" vertex="1" parent="1">
                    <mxGeometry x="40" y="270" width="560" height="10" as="geometry"/>
                </mxCell>
                <mxCell id="6" value="" style="edgeStyle=orthogonalEdgeStyle;html=1;verticalAlign=bottom;endArrow=open;endSize=8;strokeColor=#ff0000;" edge="1" source="5" parent="1">
                    <mxGeometry relative="1" as="geometry">
                        <mxPoint x="295" y="350" as="targetPoint"/>
                        <mxPoint x="310" y="300" as="sourcePoint"/>
                        <Array as="points">
                            <mxPoint x="295" y="300"/>
                            <mxPoint x="295" y="300"/>
                        </Array>
                    </mxGeometry>
                </mxCell>
                <mxCell id="10" value="" style="edgeStyle=orthogonalEdgeStyle;rounded=0;orthogonalLoop=1;jettySize=auto;html=1;entryX=0.5;entryY=0;entryDx=0;entryDy=0;" edge="1" parent="1" source="8" target="9">
                    <mxGeometry relative="1" as="geometry"/>
                </mxCell>
                <mxCell id="8" value="Find cell radius away from center in direction 1" style="shape=rect;html=1;rounded=1;whiteSpace=wrap;align=center;" vertex="1" parent="1">
                    <mxGeometry x="71" y="350" width="110" height="80" as="geometry"/>
                </mxCell>
                <mxCell id="12" value="" style="edgeStyle=orthogonalEdgeStyle;rounded=0;orthogonalLoop=1;jettySize=auto;html=1;" edge="1" parent="1" source="9" target="11">
                    <mxGeometry relative="1" as="geometry"/>
                </mxCell>
                <mxCell id="9" value="Set cell counter to 0" style="shape=rect;html=1;rounded=1;whiteSpace=wrap;align=center;" vertex="1" parent="1">
                    <mxGeometry x="71" y="480" width="110" height="60" as="geometry"/>
                </mxCell>
                <mxCell id="14" value="" style="edgeStyle=orthogonalEdgeStyle;rounded=0;orthogonalLoop=1;jettySize=auto;html=1;" edge="1" parent="1" source="11" target="13">
                    <mxGeometry relative="1" as="geometry"/>
                </mxCell>
                <mxCell id="11" value="Use Factory to geanerate Field in current Cell" style="shape=rect;html=1;rounded=1;whiteSpace=wrap;align=center;" vertex="1" parent="1">
                    <mxGeometry x="71" y="590" width="110" height="80" as="geometry"/>
                </mxCell>
                <mxCell id="18" value="" style="edgeStyle=orthogonalEdgeStyle;rounded=0;orthogonalLoop=1;jettySize=auto;html=1;" edge="1" parent="1" source="13" target="15">
                    <mxGeometry relative="1" as="geometry"/>
                </mxCell>
                <mxCell id="13" value="Go 1 cell in direction 3&lt;br&gt;(1 + 2),&lt;br&gt;itarate cell counter" style="shape=rect;html=1;rounded=1;whiteSpace=wrap;align=center;" vertex="1" parent="1">
                    <mxGeometry x="71" y="710" width="110" height="80" as="geometry"/>
                </mxCell>
                <mxCell id="15" value="counter &amp;lt; radius?" style="rhombus;whiteSpace=wrap;html=1;fillColor=#ffffc0;strokeColor=#ff0000;" vertex="1" parent="1">
                    <mxGeometry x="86" y="870" width="80" height="40" as="geometry"/>
                </mxCell>
                <mxCell id="16" value="Yes" style="edgeStyle=orthogonalEdgeStyle;html=1;align=left;verticalAlign=bottom;endArrow=open;endSize=8;strokeColor=#ff0000;entryX=1;entryY=0.5;entryDx=0;entryDy=0;" edge="1" source="15" parent="1" target="11">
                    <mxGeometry x="-1" relative="1" as="geometry">
                        <mxPoint x="191" y="620" as="targetPoint"/>
                        <Array as="points">
                            <mxPoint x="221" y="890"/>
                            <mxPoint x="221" y="630"/>
                        </Array>
                    </mxGeometry>
                </mxCell>
                <mxCell id="17" value="No" style="edgeStyle=orthogonalEdgeStyle;html=1;align=left;verticalAlign=top;endArrow=open;endSize=8;strokeColor=#ff0000;entryX=0.154;entryY=0.517;entryDx=0;entryDy=0;entryPerimeter=0;" edge="1" source="15" parent="1" target="19">
                    <mxGeometry x="-1" relative="1" as="geometry">
                        <mxPoint x="126" y="970" as="targetPoint"/>
                    </mxGeometry>
                </mxCell>
                <mxCell id="19" value="" style="shape=line;html=1;strokeWidth=6;strokeColor=#ff0000;" vertex="1" parent="1">
                    <mxGeometry x="40" y="980" width="560" height="10" as="geometry"/>
                </mxCell>
                <mxCell id="20" value="" style="edgeStyle=orthogonalEdgeStyle;html=1;verticalAlign=bottom;endArrow=open;endSize=8;strokeColor=#ff0000;exitX=0.455;exitY=0.687;exitDx=0;exitDy=0;exitPerimeter=0;entryX=0.5;entryY=0;entryDx=0;entryDy=0;" edge="1" source="19" parent="1" target="43">
                    <mxGeometry relative="1" as="geometry">
                        <mxPoint x="295" y="1060" as="targetPoint"/>
                    </mxGeometry>
                </mxCell>
                <mxCell id="21" value="" style="edgeStyle=orthogonalEdgeStyle;rounded=0;orthogonalLoop=1;jettySize=auto;html=1;entryX=0.5;entryY=0;entryDx=0;entryDy=0;" edge="1" parent="1" source="22" target="24">
                    <mxGeometry relative="1" as="geometry"/>
                </mxCell>
                <mxCell id="22" value="Find cell radius away from center in direction 2" style="shape=rect;html=1;rounded=1;whiteSpace=wrap;align=center;" vertex="1" parent="1">
                    <mxGeometry x="245" y="350" width="110" height="80" as="geometry"/>
                </mxCell>
                <mxCell id="23" value="" style="edgeStyle=orthogonalEdgeStyle;rounded=0;orthogonalLoop=1;jettySize=auto;html=1;" edge="1" parent="1" source="24" target="26">
                    <mxGeometry relative="1" as="geometry"/>
                </mxCell>
                <mxCell id="24" value="Set cell counter to 0" style="shape=rect;html=1;rounded=1;whiteSpace=wrap;align=center;" vertex="1" parent="1">
                    <mxGeometry x="245" y="480" width="110" height="60" as="geometry"/>
                </mxCell>
                <mxCell id="25" value="" style="edgeStyle=orthogonalEdgeStyle;rounded=0;orthogonalLoop=1;jettySize=auto;html=1;" edge="1" parent="1" source="26" target="28">
                    <mxGeometry relative="1" as="geometry"/>
                </mxCell>
                <mxCell id="26" value="Use Factory to geanerate Field in current Cell" style="shape=rect;html=1;rounded=1;whiteSpace=wrap;align=center;" vertex="1" parent="1">
                    <mxGeometry x="245" y="590" width="110" height="80" as="geometry"/>
                </mxCell>
                <mxCell id="27" value="" style="edgeStyle=orthogonalEdgeStyle;rounded=0;orthogonalLoop=1;jettySize=auto;html=1;" edge="1" parent="1" source="28" target="29">
                    <mxGeometry relative="1" as="geometry"/>
                </mxCell>
                <mxCell id="28" value="Go 1 cell in direction 4&lt;br&gt;(2 + 2),&lt;br&gt;itarate cell counter" style="shape=rect;html=1;rounded=1;whiteSpace=wrap;align=center;" vertex="1" parent="1">
                    <mxGeometry x="245" y="710" width="110" height="80" as="geometry"/>
                </mxCell>
                <mxCell id="29" value="counter &amp;lt; radius?" style="rhombus;whiteSpace=wrap;html=1;fillColor=#ffffc0;strokeColor=#ff0000;" vertex="1" parent="1">
                    <mxGeometry x="260" y="870" width="80" height="40" as="geometry"/>
                </mxCell>
                <mxCell id="30" value="Yes" style="edgeStyle=orthogonalEdgeStyle;html=1;align=left;verticalAlign=bottom;endArrow=open;endSize=8;strokeColor=#ff0000;entryX=1;entryY=0.5;entryDx=0;entryDy=0;" edge="1" parent="1" source="29" target="26">
                    <mxGeometry x="-1" relative="1" as="geometry">
                        <mxPoint x="365" y="620" as="targetPoint"/>
                        <Array as="points">
                            <mxPoint x="395" y="890"/>
                            <mxPoint x="395" y="630"/>
                        </Array>
                    </mxGeometry>
                </mxCell>
                <mxCell id="32" value="No" style="edgeStyle=orthogonalEdgeStyle;html=1;align=left;verticalAlign=top;endArrow=open;endSize=8;strokeColor=#ff0000;exitX=0.5;exitY=1;exitDx=0;exitDy=0;entryX=0.464;entryY=0.354;entryDx=0;entryDy=0;entryPerimeter=0;" edge="1" parent="1" source="29" target="19">
                    <mxGeometry x="-1" relative="1" as="geometry">
                        <mxPoint x="300" y="980" as="targetPoint"/>
                        <mxPoint x="299.99999999999994" y="914.8299999999999" as="sourcePoint"/>
                    </mxGeometry>
                </mxCell>
                <mxCell id="33" value="" style="edgeStyle=orthogonalEdgeStyle;html=1;verticalAlign=bottom;endArrow=open;endSize=8;strokeColor=#ff0000;entryX=0.5;entryY=0;entryDx=0;entryDy=0;exitX=0.154;exitY=0.446;exitDx=0;exitDy=0;exitPerimeter=0;" edge="1" parent="1" source="5" target="8">
                    <mxGeometry relative="1" as="geometry">
                        <mxPoint x="305" y="360" as="targetPoint"/>
                        <mxPoint x="140" y="290" as="sourcePoint"/>
                        <Array as="points">
                            <mxPoint x="126" y="290"/>
                        </Array>
                    </mxGeometry>
                </mxCell>
                <mxCell id="34" value="" style="edgeStyle=orthogonalEdgeStyle;html=1;verticalAlign=bottom;endArrow=open;endSize=8;strokeColor=#ff0000;" edge="1" parent="1">
                    <mxGeometry relative="1" as="geometry">
                        <mxPoint x="430" y="400" as="targetPoint"/>
                        <mxPoint x="430" y="280" as="sourcePoint"/>
                        <Array as="points">
                            <mxPoint x="430" y="320"/>
                            <mxPoint x="430" y="320"/>
                        </Array>
                    </mxGeometry>
                </mxCell>
                <mxCell id="35" value="" style="edgeStyle=orthogonalEdgeStyle;html=1;verticalAlign=bottom;endArrow=open;endSize=8;strokeColor=#ff0000;" edge="1" parent="1">
                    <mxGeometry relative="1" as="geometry">
                        <mxPoint x="470" y="400" as="targetPoint"/>
                        <mxPoint x="470" y="280" as="sourcePoint"/>
                        <Array as="points">
                            <mxPoint x="470" y="320"/>
                            <mxPoint x="470" y="320"/>
                        </Array>
                    </mxGeometry>
                </mxCell>
                <mxCell id="36" value="" style="edgeStyle=orthogonalEdgeStyle;html=1;verticalAlign=bottom;endArrow=open;endSize=8;strokeColor=#ff0000;" edge="1" parent="1">
                    <mxGeometry relative="1" as="geometry">
                        <mxPoint x="510" y="400" as="targetPoint"/>
                        <mxPoint x="510" y="280" as="sourcePoint"/>
                        <Array as="points">
                            <mxPoint x="510" y="320"/>
                            <mxPoint x="510" y="320"/>
                        </Array>
                    </mxGeometry>
                </mxCell>
                <mxCell id="37" value="" style="edgeStyle=orthogonalEdgeStyle;html=1;verticalAlign=bottom;endArrow=open;endSize=8;strokeColor=#ff0000;" edge="1" parent="1">
                    <mxGeometry relative="1" as="geometry">
                        <mxPoint x="550" y="400" as="targetPoint"/>
                        <mxPoint x="550" y="280" as="sourcePoint"/>
                        <Array as="points">
                            <mxPoint x="550" y="320"/>
                            <mxPoint x="550" y="320"/>
                        </Array>
                    </mxGeometry>
                </mxCell>
                <mxCell id="38" value="&lt;font style=&quot;font-size: 18px&quot;&gt;The same for &lt;br&gt;all 6 directions&lt;/font&gt;" style="text;html=1;align=center;verticalAlign=middle;resizable=0;points=[];autosize=1;" vertex="1" parent="1">
                    <mxGeometry x="430" y="430" width="130" height="40" as="geometry"/>
                </mxCell>
                <mxCell id="39" value="" style="edgeStyle=orthogonalEdgeStyle;html=1;verticalAlign=bottom;endArrow=open;endSize=8;strokeColor=#ff0000;" edge="1" parent="1">
                    <mxGeometry relative="1" as="geometry">
                        <mxPoint x="434.41" y="980" as="targetPoint"/>
                        <mxPoint x="434" y="500" as="sourcePoint"/>
                        <Array as="points">
                            <mxPoint x="434.41" y="900"/>
                            <mxPoint x="434.41" y="900"/>
                        </Array>
                    </mxGeometry>
                </mxCell>
                <mxCell id="40" value="" style="edgeStyle=orthogonalEdgeStyle;html=1;verticalAlign=bottom;endArrow=open;endSize=8;strokeColor=#ff0000;" edge="1" parent="1">
                    <mxGeometry relative="1" as="geometry">
                        <mxPoint x="474.41" y="980" as="targetPoint"/>
                        <mxPoint x="474" y="500" as="sourcePoint"/>
                        <Array as="points">
                            <mxPoint x="474.41" y="900"/>
                            <mxPoint x="474.41" y="900"/>
                        </Array>
                    </mxGeometry>
                </mxCell>
                <mxCell id="41" value="" style="edgeStyle=orthogonalEdgeStyle;html=1;verticalAlign=bottom;endArrow=open;endSize=8;strokeColor=#ff0000;" edge="1" parent="1">
                    <mxGeometry relative="1" as="geometry">
                        <mxPoint x="514.41" y="980" as="targetPoint"/>
                        <mxPoint x="514" y="500" as="sourcePoint"/>
                        <Array as="points">
                            <mxPoint x="514.41" y="900"/>
                            <mxPoint x="514.41" y="900"/>
                        </Array>
                    </mxGeometry>
                </mxCell>
                <mxCell id="42" value="" style="edgeStyle=orthogonalEdgeStyle;html=1;verticalAlign=bottom;endArrow=open;endSize=8;strokeColor=#ff0000;" edge="1" parent="1">
                    <mxGeometry relative="1" as="geometry">
                        <mxPoint x="554.41" y="980" as="targetPoint"/>
                        <mxPoint x="554" y="500" as="sourcePoint"/>
                        <Array as="points">
                            <mxPoint x="554.41" y="900"/>
                            <mxPoint x="554.41" y="900"/>
                        </Array>
                    </mxGeometry>
                </mxCell>
                <mxCell id="47" value="" style="edgeStyle=orthogonalEdgeStyle;rounded=0;orthogonalLoop=1;jettySize=auto;html=1;" edge="1" parent="1" source="43" target="44">
                    <mxGeometry relative="1" as="geometry"/>
                </mxCell>
                <mxCell id="43" value="Iterate radius" style="shape=rect;html=1;rounded=1;whiteSpace=wrap;align=center;" vertex="1" parent="1">
                    <mxGeometry x="260" y="1030" width="70" height="50" as="geometry"/>
                </mxCell>
                <mxCell id="44" value="Radius &amp;gt; 4" style="rhombus;whiteSpace=wrap;html=1;fillColor=#ffffc0;strokeColor=#ff0000;" vertex="1" parent="1">
                    <mxGeometry x="255" y="1120" width="80" height="40" as="geometry"/>
                </mxCell>
                <mxCell id="45" value="no" style="edgeStyle=orthogonalEdgeStyle;html=1;align=left;verticalAlign=bottom;endArrow=open;endSize=8;strokeColor=#ff0000;exitX=1;exitY=0.5;exitDx=0;exitDy=0;" edge="1" source="44" parent="1">
                    <mxGeometry x="-1" relative="1" as="geometry">
                        <mxPoint x="295" y="230" as="targetPoint"/>
                        <Array as="points">
                            <mxPoint x="630" y="1140"/>
                            <mxPoint x="630" y="230"/>
                        </Array>
                        <mxPoint as="offset"/>
                    </mxGeometry>
                </mxCell>
                <mxCell id="46" value="yes" style="edgeStyle=orthogonalEdgeStyle;html=1;align=left;verticalAlign=top;endArrow=open;endSize=8;strokeColor=#ff0000;entryX=0.455;entryY=0.55;entryDx=0;entryDy=0;entryPerimeter=0;" edge="1" source="44" parent="1" target="53">
                    <mxGeometry x="-1" relative="1" as="geometry">
                        <mxPoint x="295" y="1250" as="targetPoint"/>
                    </mxGeometry>
                </mxCell>
                <mxCell id="49" value="At this point&lt;br&gt;we generated&lt;br&gt;middle hexagon" style="text;html=1;align=center;verticalAlign=middle;resizable=0;points=[];autosize=1;" vertex="1" parent="1">
                    <mxGeometry x="181" y="1180" width="100" height="50" as="geometry"/>
                </mxCell>
                <mxCell id="50" value="This fork could easily&lt;br&gt;be implemented as loop" style="text;html=1;align=center;verticalAlign=middle;resizable=0;points=[];autosize=1;" vertex="1" parent="1">
                    <mxGeometry x="635" y="510" width="140" height="30" as="geometry"/>
                </mxCell>
                <mxCell id="53" value="" style="shape=line;html=1;strokeWidth=6;strokeColor=#ff0000;" vertex="1" parent="1">
                    <mxGeometry x="40" y="1260" width="560" height="10" as="geometry"/>
                </mxCell>
                <mxCell id="54" value="" style="edgeStyle=orthogonalEdgeStyle;html=1;verticalAlign=bottom;endArrow=open;endSize=8;strokeColor=#ff0000;" edge="1" parent="1" source="53">
                    <mxGeometry relative="1" as="geometry">
                        <mxPoint x="295" y="1340" as="targetPoint"/>
                        <mxPoint x="310" y="1290" as="sourcePoint"/>
                        <Array as="points">
                            <mxPoint x="295" y="1290"/>
                            <mxPoint x="295" y="1290"/>
                        </Array>
                    </mxGeometry>
                </mxCell>
                <mxCell id="55" value="" style="edgeStyle=orthogonalEdgeStyle;rounded=0;orthogonalLoop=1;jettySize=auto;html=1;entryX=0.5;entryY=0;entryDx=0;entryDy=0;" edge="1" parent="1" source="56" target="58">
                    <mxGeometry relative="1" as="geometry"/>
                </mxCell>
                <mxCell id="56" value="Find cell radius away from center in direction 1, then go&lt;br&gt;radius - 4 cells in direction 3 (1 + 2)" style="shape=rect;html=1;rounded=1;whiteSpace=wrap;align=center;" vertex="1" parent="1">
                    <mxGeometry x="71" y="1340" width="110" height="80" as="geometry"/>
                </mxCell>
                <mxCell id="91" value="" style="edgeStyle=orthogonalEdgeStyle;rounded=0;orthogonalLoop=1;jettySize=auto;html=1;" edge="1" parent="1" source="58" target="90">
                    <mxGeometry relative="1" as="geometry"/>
                </mxCell>
                <mxCell id="58" value="Set cell limit to&lt;br&gt;9 - radius" style="shape=rect;html=1;rounded=1;whiteSpace=wrap;align=center;" vertex="1" parent="1">
                    <mxGeometry x="71" y="1464" width="110" height="46" as="geometry"/>
                </mxCell>
                <mxCell id="59" value="" style="edgeStyle=orthogonalEdgeStyle;rounded=0;orthogonalLoop=1;jettySize=auto;html=1;" edge="1" parent="1" source="60" target="62">
                    <mxGeometry relative="1" as="geometry"/>
                </mxCell>
                <mxCell id="60" value="Use Factory to geanerate Field in current Cell" style="shape=rect;html=1;rounded=1;whiteSpace=wrap;align=center;" vertex="1" parent="1">
                    <mxGeometry x="71" y="1690" width="110" height="80" as="geometry"/>
                </mxCell>
                <mxCell id="61" value="" style="edgeStyle=orthogonalEdgeStyle;rounded=0;orthogonalLoop=1;jettySize=auto;html=1;" edge="1" parent="1" source="62" target="63">
                    <mxGeometry relative="1" as="geometry"/>
                </mxCell>
                <mxCell id="62" value="Go 1 cell in direction 3&lt;br&gt;(1 + 2),&lt;br&gt;decrement cell limit" style="shape=rect;html=1;rounded=1;whiteSpace=wrap;align=center;" vertex="1" parent="1">
                    <mxGeometry x="71" y="1810" width="110" height="80" as="geometry"/>
                </mxCell>
                <mxCell id="63" value="limit &amp;gt; 0?" style="rhombus;whiteSpace=wrap;html=1;fillColor=#ffffc0;strokeColor=#ff0000;" vertex="1" parent="1">
                    <mxGeometry x="86" y="1970" width="80" height="40" as="geometry"/>
                </mxCell>
                <mxCell id="64" value="Yes" style="edgeStyle=orthogonalEdgeStyle;html=1;align=left;verticalAlign=bottom;endArrow=open;endSize=8;strokeColor=#ff0000;entryX=1;entryY=0.5;entryDx=0;entryDy=0;" edge="1" parent="1" source="63" target="60">
                    <mxGeometry x="-1" relative="1" as="geometry">
                        <mxPoint x="191" y="1720" as="targetPoint"/>
                        <Array as="points">
                            <mxPoint x="221" y="1990"/>
                            <mxPoint x="221" y="1730"/>
                        </Array>
                    </mxGeometry>
                </mxCell>
                <mxCell id="65" value="No" style="edgeStyle=orthogonalEdgeStyle;html=1;align=left;verticalAlign=top;endArrow=open;endSize=8;strokeColor=#ff0000;entryX=0.154;entryY=0.517;entryDx=0;entryDy=0;entryPerimeter=0;" edge="1" parent="1" source="63" target="66">
                    <mxGeometry x="-1" relative="1" as="geometry">
                        <mxPoint x="126" y="2070" as="targetPoint"/>
                    </mxGeometry>
                </mxCell>
                <mxCell id="66" value="" style="shape=line;html=1;strokeWidth=6;strokeColor=#ff0000;" vertex="1" parent="1">
                    <mxGeometry x="40" y="2080" width="560" height="10" as="geometry"/>
                </mxCell>
                <mxCell id="67" value="" style="edgeStyle=orthogonalEdgeStyle;html=1;verticalAlign=bottom;endArrow=open;endSize=8;strokeColor=#ff0000;exitX=0.455;exitY=0.687;exitDx=0;exitDy=0;exitPerimeter=0;entryX=0.5;entryY=0;entryDx=0;entryDy=0;" edge="1" parent="1" source="66" target="89">
                    <mxGeometry relative="1" as="geometry">
                        <mxPoint x="295" y="2160" as="targetPoint"/>
                    </mxGeometry>
                </mxCell>
                <mxCell id="68" value="" style="edgeStyle=orthogonalEdgeStyle;rounded=0;orthogonalLoop=1;jettySize=auto;html=1;entryX=0.5;entryY=0;entryDx=0;entryDy=0;" edge="1" parent="1" source="69" target="71">
                    <mxGeometry relative="1" as="geometry"/>
                </mxCell>
                <mxCell id="69" value="Find cell radius away from center in direction 2, then go&lt;br&gt;radius - 4 cells in direction 4 (2 + 2)" style="shape=rect;html=1;rounded=1;whiteSpace=wrap;align=center;" vertex="1" parent="1">
                    <mxGeometry x="245" y="1340" width="110" height="80" as="geometry"/>
                </mxCell>
                <mxCell id="94" value="" style="edgeStyle=orthogonalEdgeStyle;rounded=0;orthogonalLoop=1;jettySize=auto;html=1;" edge="1" parent="1" source="71" target="93">
                    <mxGeometry relative="1" as="geometry"/>
                </mxCell>
                <mxCell id="71" value="Set cell limit to&lt;br&gt;9 - radius" style="shape=rect;html=1;rounded=1;whiteSpace=wrap;align=center;" vertex="1" parent="1">
                    <mxGeometry x="245" y="1464" width="110" height="46" as="geometry"/>
                </mxCell>
                <mxCell id="72" value="" style="edgeStyle=orthogonalEdgeStyle;rounded=0;orthogonalLoop=1;jettySize=auto;html=1;" edge="1" parent="1" source="73" target="75">
                    <mxGeometry relative="1" as="geometry"/>
                </mxCell>
                <mxCell id="73" value="Use Factory to geanerate Field in current Cell" style="shape=rect;html=1;rounded=1;whiteSpace=wrap;align=center;" vertex="1" parent="1">
                    <mxGeometry x="245" y="1690" width="110" height="80" as="geometry"/>
                </mxCell>
                <mxCell id="74" value="" style="edgeStyle=orthogonalEdgeStyle;rounded=0;orthogonalLoop=1;jettySize=auto;html=1;" edge="1" parent="1" source="75" target="76">
                    <mxGeometry relative="1" as="geometry"/>
                </mxCell>
                <mxCell id="75" value="Go 1 cell in direction 4&lt;br&gt;(2 + 2),&lt;br&gt;decrement cell limit" style="shape=rect;html=1;rounded=1;whiteSpace=wrap;align=center;" vertex="1" parent="1">
                    <mxGeometry x="245" y="1810" width="110" height="80" as="geometry"/>
                </mxCell>
                <mxCell id="76" value="limit &amp;gt; 0?" style="rhombus;whiteSpace=wrap;html=1;fillColor=#ffffc0;strokeColor=#ff0000;" vertex="1" parent="1">
                    <mxGeometry x="260" y="1970" width="80" height="40" as="geometry"/>
                </mxCell>
                <mxCell id="77" value="Yes" style="edgeStyle=orthogonalEdgeStyle;html=1;align=left;verticalAlign=bottom;endArrow=open;endSize=8;strokeColor=#ff0000;entryX=1;entryY=0.5;entryDx=0;entryDy=0;" edge="1" parent="1" source="76" target="73">
                    <mxGeometry x="-1" relative="1" as="geometry">
                        <mxPoint x="365" y="1720" as="targetPoint"/>
                        <Array as="points">
                            <mxPoint x="395" y="1990"/>
                            <mxPoint x="395" y="1730"/>
                        </Array>
                    </mxGeometry>
                </mxCell>
                <mxCell id="78" value="No" style="edgeStyle=orthogonalEdgeStyle;html=1;align=left;verticalAlign=top;endArrow=open;endSize=8;strokeColor=#ff0000;exitX=0.5;exitY=1;exitDx=0;exitDy=0;entryX=0.464;entryY=0.354;entryDx=0;entryDy=0;entryPerimeter=0;" edge="1" parent="1" source="76" target="66">
                    <mxGeometry x="-1" relative="1" as="geometry">
                        <mxPoint x="300" y="2080" as="targetPoint"/>
                        <mxPoint x="299.99999999999994" y="2014.83" as="sourcePoint"/>
                    </mxGeometry>
                </mxCell>
                <mxCell id="79" value="" style="edgeStyle=orthogonalEdgeStyle;html=1;verticalAlign=bottom;endArrow=open;endSize=8;strokeColor=#ff0000;entryX=0.5;entryY=0;entryDx=0;entryDy=0;exitX=0.154;exitY=0.446;exitDx=0;exitDy=0;exitPerimeter=0;" edge="1" parent="1" source="53" target="56">
                    <mxGeometry relative="1" as="geometry">
                        <mxPoint x="305" y="1350" as="targetPoint"/>
                        <mxPoint x="140" y="1280" as="sourcePoint"/>
                        <Array as="points">
                            <mxPoint x="126" y="1280"/>
                        </Array>
                    </mxGeometry>
                </mxCell>
                <mxCell id="80" value="" style="edgeStyle=orthogonalEdgeStyle;html=1;verticalAlign=bottom;endArrow=open;endSize=8;strokeColor=#ff0000;" edge="1" parent="1">
                    <mxGeometry relative="1" as="geometry">
                        <mxPoint x="430" y="1390" as="targetPoint"/>
                        <mxPoint x="430" y="1270" as="sourcePoint"/>
                        <Array as="points">
                            <mxPoint x="430" y="1310"/>
                            <mxPoint x="430" y="1310"/>
                        </Array>
                    </mxGeometry>
                </mxCell>
                <mxCell id="81" value="" style="edgeStyle=orthogonalEdgeStyle;html=1;verticalAlign=bottom;endArrow=open;endSize=8;strokeColor=#ff0000;" edge="1" parent="1">
                    <mxGeometry relative="1" as="geometry">
                        <mxPoint x="470" y="1390" as="targetPoint"/>
                        <mxPoint x="470" y="1270" as="sourcePoint"/>
                        <Array as="points">
                            <mxPoint x="470" y="1310"/>
                            <mxPoint x="470" y="1310"/>
                        </Array>
                    </mxGeometry>
                </mxCell>
                <mxCell id="82" value="" style="edgeStyle=orthogonalEdgeStyle;html=1;verticalAlign=bottom;endArrow=open;endSize=8;strokeColor=#ff0000;" edge="1" parent="1">
                    <mxGeometry relative="1" as="geometry">
                        <mxPoint x="510" y="1390" as="targetPoint"/>
                        <mxPoint x="510" y="1270" as="sourcePoint"/>
                        <Array as="points">
                            <mxPoint x="510" y="1310"/>
                            <mxPoint x="510" y="1310"/>
                        </Array>
                    </mxGeometry>
                </mxCell>
                <mxCell id="83" value="" style="edgeStyle=orthogonalEdgeStyle;html=1;verticalAlign=bottom;endArrow=open;endSize=8;strokeColor=#ff0000;" edge="1" parent="1">
                    <mxGeometry relative="1" as="geometry">
                        <mxPoint x="550" y="1390" as="targetPoint"/>
                        <mxPoint x="550" y="1270" as="sourcePoint"/>
                        <Array as="points">
                            <mxPoint x="550" y="1310"/>
                            <mxPoint x="550" y="1310"/>
                        </Array>
                    </mxGeometry>
                </mxCell>
                <mxCell id="84" value="&lt;font style=&quot;font-size: 18px&quot;&gt;The same for &lt;br&gt;all 6 directions&lt;br&gt;and colors&lt;br&gt;&lt;/font&gt;" style="text;html=1;align=center;verticalAlign=middle;resizable=0;points=[];autosize=1;" vertex="1" parent="1">
                    <mxGeometry x="430" y="1420" width="130" height="50" as="geometry"/>
                </mxCell>
                <mxCell id="85" value="" style="edgeStyle=orthogonalEdgeStyle;html=1;verticalAlign=bottom;endArrow=open;endSize=8;strokeColor=#ff0000;" edge="1" parent="1">
                    <mxGeometry relative="1" as="geometry">
                        <mxPoint x="434.4100000000001" y="2080" as="targetPoint"/>
                        <mxPoint x="434" y="1500" as="sourcePoint"/>
                        <Array as="points">
                            <mxPoint x="434.41" y="2000"/>
                            <mxPoint x="434.41" y="2000"/>
                        </Array>
                    </mxGeometry>
                </mxCell>
                <mxCell id="86" value="" style="edgeStyle=orthogonalEdgeStyle;html=1;verticalAlign=bottom;endArrow=open;endSize=8;strokeColor=#ff0000;" edge="1" parent="1">
                    <mxGeometry relative="1" as="geometry">
                        <mxPoint x="474.4100000000001" y="2080" as="targetPoint"/>
                        <mxPoint x="474" y="1500" as="sourcePoint"/>
                        <Array as="points">
                            <mxPoint x="474.41" y="2000"/>
                            <mxPoint x="474.41" y="2000"/>
                        </Array>
                    </mxGeometry>
                </mxCell>
                <mxCell id="87" value="" style="edgeStyle=orthogonalEdgeStyle;html=1;verticalAlign=bottom;endArrow=open;endSize=8;strokeColor=#ff0000;" edge="1" parent="1">
                    <mxGeometry relative="1" as="geometry">
                        <mxPoint x="514.4099999999999" y="2080" as="targetPoint"/>
                        <mxPoint x="514" y="1500" as="sourcePoint"/>
                        <Array as="points">
                            <mxPoint x="514.41" y="2000"/>
                            <mxPoint x="514.41" y="2000"/>
                        </Array>
                    </mxGeometry>
                </mxCell>
                <mxCell id="88" value="" style="edgeStyle=orthogonalEdgeStyle;html=1;verticalAlign=bottom;endArrow=open;endSize=8;strokeColor=#ff0000;" edge="1" parent="1">
                    <mxGeometry relative="1" as="geometry">
                        <mxPoint x="554.4099999999999" y="2080" as="targetPoint"/>
                        <mxPoint x="554" y="1500" as="sourcePoint"/>
                        <Array as="points">
                            <mxPoint x="554.41" y="2000"/>
                            <mxPoint x="554.41" y="2000"/>
                        </Array>
                    </mxGeometry>
                </mxCell>
                <mxCell id="99" value="" style="edgeStyle=orthogonalEdgeStyle;rounded=0;orthogonalLoop=1;jettySize=auto;html=1;" edge="1" parent="1" source="89" target="96">
                    <mxGeometry relative="1" as="geometry">
                        <Array as="points">
                            <mxPoint x="295" y="2188"/>
                            <mxPoint x="295" y="2188"/>
                        </Array>
                    </mxGeometry>
                </mxCell>
                <mxCell id="89" value="Iterate radius" style="shape=rect;html=1;rounded=1;whiteSpace=wrap;align=center;" vertex="1" parent="1">
                    <mxGeometry x="260" y="2130" width="70" height="50" as="geometry"/>
                </mxCell>
                <mxCell id="92" value="" style="edgeStyle=orthogonalEdgeStyle;rounded=0;orthogonalLoop=1;jettySize=auto;html=1;" edge="1" parent="1" source="90" target="60">
                    <mxGeometry relative="1" as="geometry"/>
                </mxCell>
                <mxCell id="90" value="Set Factory to&lt;br&gt;generate Fields&lt;br&gt;home to color 1" style="shape=rect;html=1;rounded=1;whiteSpace=wrap;align=center;" vertex="1" parent="1">
                    <mxGeometry x="71" y="1560" width="110" height="80" as="geometry"/>
                </mxCell>
                <mxCell id="95" value="" style="edgeStyle=orthogonalEdgeStyle;rounded=0;orthogonalLoop=1;jettySize=auto;html=1;" edge="1" parent="1" source="93" target="73">
                    <mxGeometry relative="1" as="geometry"/>
                </mxCell>
                <mxCell id="93" value="Set Factory to&lt;br&gt;generate Fields&lt;br&gt;home to color 2" style="shape=rect;html=1;rounded=1;whiteSpace=wrap;align=center;" vertex="1" parent="1">
                    <mxGeometry x="245" y="1560" width="110" height="80" as="geometry"/>
                </mxCell>
                <mxCell id="96" value="radius &amp;gt; 8?" style="rhombus;whiteSpace=wrap;html=1;fillColor=#ffffc0;strokeColor=#ff0000;" vertex="1" parent="1">
                    <mxGeometry x="255" y="2208" width="80" height="40" as="geometry"/>
                </mxCell>
                <mxCell id="97" value="no" style="edgeStyle=orthogonalEdgeStyle;html=1;align=left;verticalAlign=bottom;endArrow=open;endSize=8;strokeColor=#ff0000;" edge="1" source="96" parent="1">
                    <mxGeometry x="-1" relative="1" as="geometry">
                        <mxPoint x="295" y="1200" as="targetPoint"/>
                        <Array as="points">
                            <mxPoint x="630" y="2228"/>
                            <mxPoint x="630" y="1200"/>
                        </Array>
                    </mxGeometry>
                </mxCell>
                <mxCell id="98" value="yes" style="edgeStyle=orthogonalEdgeStyle;html=1;align=left;verticalAlign=top;endArrow=open;endSize=8;strokeColor=#ff0000;entryX=0.5;entryY=0;entryDx=0;entryDy=0;" edge="1" source="96" parent="1" target="100">
                    <mxGeometry x="-1" relative="1" as="geometry">
                        <mxPoint x="295" y="2308" as="targetPoint"/>
                    </mxGeometry>
                </mxCell>
                <mxCell id="100" value="" style="ellipse;html=1;shape=endState;fillColor=#000000;strokeColor=#ff0000;" vertex="1" parent="1">
                    <mxGeometry x="280" y="2300" width="30" height="30" as="geometry"/>
                </mxCell>
                <mxCell id="101" value="This fork could&amp;nbsp;be&lt;br&gt;implemented as loop,&lt;br&gt;using class changing&lt;br&gt;current factory each&lt;br&gt;iteration" style="text;html=1;align=center;verticalAlign=middle;resizable=0;points=[];autosize=1;" vertex="1" parent="1">
                    <mxGeometry x="645" y="1430" width="130" height="70" as="geometry"/>
                </mxCell>
                <mxCell id="102" value="All triangles are&lt;br&gt;generated" style="text;html=1;align=center;verticalAlign=middle;resizable=0;points=[];autosize=1;" vertex="1" parent="1">
                    <mxGeometry x="180" y="2260" width="100" height="30" as="geometry"/>
                </mxCell>
            </root>
        </mxGraphModel>
    </diagram>
</mxfile>